<svg xmlns="http://www.w3.org/2000/svg" width="79" height="79" viewBox="0 0 79 79" style="color:#fff"><style>@media (prefers-color-scheme:dark){.favicon-icon-bg{color:#000}}</style><rect width="100%" height="100%" class="favicon-icon-bg" fill="currentColor"/><ellipse fill="currentColor" stroke-width="1.5" cx="27.603" cy="16.6" rx="8.353" ry="13.147" stroke="#000"/><ellipse fill="currentColor" stroke-width="1.5" cx="40.397" cy="54.57" rx="24.118" ry="20.294" stroke="#000"/><ellipse fill="currentColor" stroke-width="1.5" cx="50.868" cy="16.6" rx="8.353" ry="13.147" stroke="#000"/><ellipse transform="rotate(13.964 69.721 31.276)" fill="currentColor" stroke-width="1.5" cx="69.721" cy="31.276" rx="8.5" ry="12" stroke="#000"/><ellipse transform="rotate(-14 9.25 32.217)" fill="currentColor" stroke-width="1.5" cx="9.25" cy="32.217" rx="8.5" ry="12" stroke="#000"/><ellipse fill="currentColor" stroke-width="1.5" cx="40.191" cy="55.041" rx="9.324" ry="9.647" stroke="#000"/><path d="m39.897 45.529.235 18.588" fill="none" stroke="#000" stroke-width="1.5" stroke-opacity="null" stroke-linejoin="null" stroke-linecap="null"/><ellipse fill="currentColor" stroke="#000" stroke-width="1.5" stroke-opacity="null" fill-opacity="null" cx="44.956" cy="52.411" rx="1" ry=".706"/><ellipse fill="currentColor" stroke="#000" stroke-width="1.5" stroke-opacity="null" fill-opacity="null" cx="44.485" cy="57.588" rx="1" ry=".706"/><ellipse fill="currentColor" stroke="#000" stroke-width="1.5" stroke-opacity="null" fill-opacity="null" cx="35.544" cy="55.235" rx="1" ry=".706"/><path d="m27.427 44.588 5.647 4.235m-6.589 12 4.706-2.588m21.883-12.941-4.471 4.47m6.824 8-5.177-.235" fill="none" stroke="#000" stroke-width="1.5" stroke-opacity="null" stroke-linejoin="null" stroke-linecap="null"/></svg>